{"title":"7 Days in Havana (2012) HC Eng Subs-BDM","uid":9545450,"size":867155456,"categoryP":"video","categoryS":"movies","magnet":"?xt=urn:btih:07495a36b9a9ea52fa03ce5c1a9fc1490a4bfe80&amp;dn=7+Days+in+Havana+%282012%29+HC+Eng+Subs-BDM&amp;tr=udp%3A%2F%2Ftracker.openbittorrent.com%3A80&amp;tr=udp%3A%2F%2Fopen.demonii.com%3A1337&amp;tr=udp%3A%2F%2Ftracker.coppersurfer.tk%3A6969&amp;tr=udp%3A%2F%2Fexodus.desync.com%3A6969","seeders":4,"leechers":1,"uploader":"BigDogMoya","files":-1,"time":1391124474,"description":"*NOTE*\n\nThis release contains Spanish and English audio and HARDCODED ENGLISH subtitles for the whole movie.\n\n\nIMDB Link:\n    &lt;a href=&quot;\nhttp://www.imdb.com/title/tt1797348/&quot; rel=&quot;nofollow&quot; target=&quot;_NEW&quot;&gt;\nhttp://www.imdb.com/title/tt1797348/&lt;/a&gt;\n\n\nScreens:\n &lt;a href=&quot;\nhttp://i.imgur.com/GElro7I.png&quot; rel=&quot;nofollow&quot; target=&quot;_NEW&quot;&gt;\nhttp://i.imgur.com/GElro7I.png&lt;/a&gt;\n &lt;a href=&quot;\nhttp://i.imgur.com/pWaTbJA.png&quot; rel=&quot;nofollow&quot; target=&quot;_NEW&quot;&gt;\nhttp://i.imgur.com/pWaTbJA.png&lt;/a&gt;\n &lt;a href=&quot;\nhttp://i.imgur.com/6EdMZon.png&quot; rel=&quot;nofollow&quot; target=&quot;_NEW&quot;&gt;\nhttp://i.imgur.com/6EdMZon.png&lt;/a&gt;\n &lt;a href=&quot;\nhttp://i.imgur.com/MMO2jdx.png&quot; rel=&quot;nofollow&quot; target=&quot;_NEW&quot;&gt;\nhttp://i.imgur.com/MMO2jdx.png&lt;/a&gt;\n &lt;a href=&quot;\nhttp://i.imgur.com/xK0lVLU.png&quot; rel=&quot;nofollow&quot; target=&quot;_NEW&quot;&gt;\nhttp://i.imgur.com/xK0lVLU.png&lt;/a&gt;\n\n\nVideo\nID                                       : 1\nFormat                                   : AVC\nFormat/Info                              : Advanced Video Codec\nFormat profile                           : &lt;a class=&quot;__cf_email__&quot; href=&quot;/cdn-cgi/l/email-protection&quot; data-cfemail=&quot;4f072628270f037c617f&quot;&gt;[email&amp;#160;protected]&lt;/a&gt;&lt;script cf-hash='f9e31' type=&quot;text/javascript&quot;&gt;\n/* &lt;![CDATA[ */!function(){try{var t=&quot;currentScript&quot;in document?document.currentScript:function(){for(var t=document.getElementsByTagName(&quot;script&quot;),e=t.length;e--;)if(t[e].getAttribute(&quot;cf-hash&quot;))return t[e]}();if(t&amp;&amp;t.previousSibling){var e,r,n,i,c=t.previousSibling,a=c.getAttribute(&quot;data-cfemail&quot;);if(a){for(e=&quot;&quot;,r=parseInt(a.substr(0,2),16),n=2;a.length-n;n+=2)i=parseInt(a.substr(n,2),16)^r,e+=String.fromCharCode(i);e=document.createTextNode(e),c.parentNode.replaceChild(e,c)}}}catch(u){}}();/* ]]&gt; */&lt;/script&gt;\nFormat settings, CABAC                   : Yes\nFormat settings, ReFrames                : 4 frames\nCodec ID                                 : avc1\nCodec ID/Info                            : Advanced Video Coding\nDuration                                 : 2h 8mn\nBit rate                                 : 753 Kbps\nWidth                                    : 640 pixels\nHeight                                   : 352 pixels\nDisplay aspect ratio                     : 16:9\nFrame rate mode                          : Variable\nFrame rate                               : 23.976 fps\nMinimum frame rate                       : 11.988 fps\nMaximum frame rate                       : 23.976 fps\nColor space                              : YUV\nChroma subsampling                       : 4:2:0\nBit depth                                : 8 bits\nScan type                                : Progressive\nBits/(Pixel*Frame)                       : 0.139\nStream size                              : 694 MiB (85%)\nWriting library                          : x264 core 123 r2189 35cf912\n\n\nAudio\nID                                       : 2\nFormat                                   : AAC\nFormat/Info                              : Advanced Audio Codec\nFormat profile                           : LC\nCodec ID                                 : 40\nDuration                                 : 2h 8mn\nBit rate mode                            : Constant\nBit rate                                 : 128 Kbps\nChannel(s)                               : 2 channels\nChannel positions                        : Front: L R\nSampling rate                            : 48.0 KHz\nCompression mode                         : Lossy\nStream size                              : 118 MiB (14%)\nLanguage                                 : unk\n","torrent":{"xt":"urn:btih:07495a36b9a9ea52fa03ce5c1a9fc1490a4bfe80","amp;dn":"7+Days+in+Havana+%282012%29+HC+Eng+Subs-BDM","amp;tr":["udp%3A%2F%2Ftracker.openbittorrent.com%3A80","udp%3A%2F%2Fopen.demonii.com%3A1337","udp%3A%2F%2Ftracker.coppersurfer.tk%3A6969","udp%3A%2F%2Fexodus.desync.com%3A6969"],"infoHash":"07495a36b9a9ea52fa03ce5c1a9fc1490a4bfe80","infoHashBuffer":{"type":"Buffer","data":[7,73,90,54,185,169,234,82,250,3,206,92,26,159,193,73,10,75,254,128]},"announce":[],"urlList":[]}}